<svg width="174" height="200" viewBox="0 0 174 200" fill="none" xmlns="http://www.w3.org/2000/svg">
<path d="M1.89746 50.866L87 1.73205L172.103 50.866V149.134L87 198.268L1.89746 149.134V50.866Z" stroke="white" stroke-width="3"/>
<path d="M13.3547 134L43.3068 66.8H58.6668L88.7148 134H72.3948L47.8188 74.672H53.9628L29.2908 134H13.3547ZM28.3307 119.6L32.4588 107.792H67.0188L71.2428 119.6H28.3307ZM109.607 118.64L108.743 100.688L140.903 66.8H158.183L129.191 98L120.551 107.216L109.607 118.64ZM95.6868 134V66.8H111.143V134H95.6868ZM141.671 134L117.767 104.72L127.943 93.68L159.815 134H141.671Z" fill="white"/>
</svg>
